<svg width="160" height="32" viewBox="0 0 160 32" fill="none" xmlns="http://www.w3.org/2000/svg">
<path d="M25.297 1.07C25.8163 1.07 26.2127 1.30233 26.486 1.767C26.7867 2.23166 26.814 2.69633 26.568 3.161L18.245 19.602C18.163 19.7387 18.122 19.971 18.122 20.299V28.663C18.122 29.2917 17.8897 29.8383 17.425 30.303C16.9603 30.7677 16.4137 31 15.785 31H12.013C11.3843 31 10.8377 30.7677 10.373 30.303C9.93567 29.8383 9.717 29.2917 9.717 28.663V20.299C9.717 20.0257 9.66233 19.7933 9.553 19.602L1.23 3.161C0.984 2.69633 0.997667 2.23166 1.271 1.767C1.54433 1.30233 1.95433 1.07 2.501 1.07H7.134C7.81733 1.07 8.446 1.275 9.02 1.685C9.594 2.06767 10.004 2.587 10.25 3.243L13.94 13.329C13.94 13.3563 13.9537 13.37 13.981 13.37C14.0083 13.37 14.022 13.3563 14.022 13.329L17.712 3.243C17.958 2.587 18.3543 2.06767 18.901 1.685C19.475 1.275 20.1173 1.07 20.828 1.07H25.297ZM31.6203 19.11H35.8843C35.9663 19.11 36.0346 19.0827 36.0893 19.028C36.1713 18.946 36.1986 18.864 36.1713 18.782L33.7933 8.081C33.7933 8.05367 33.7796 8.04 33.7523 8.04C33.725 8.04 33.7113 8.05367 33.7113 8.081L31.3333 18.782C31.306 18.864 31.3196 18.946 31.3743 19.028C31.4563 19.0827 31.5383 19.11 31.6203 19.11ZM38.8363 3.284L46.8723 28.786C47.0363 29.3327 46.9406 29.8383 46.5853 30.303C46.2573 30.7677 45.8063 31 45.2323 31H41.2143C40.531 31 39.916 30.795 39.3693 30.385C38.85 29.9477 38.522 29.401 38.3853 28.745L37.6883 25.588C37.6336 25.3693 37.497 25.26 37.2783 25.26H30.2673C29.994 25.26 29.8436 25.3693 29.8163 25.588L29.1193 28.745C28.9826 29.401 28.641 29.9477 28.0943 30.385C27.575 30.795 26.9736 31 26.2903 31H22.4363C21.8623 31 21.3976 30.7677 21.0423 30.303C20.7143 29.8383 20.6323 29.3327 20.7963 28.786L28.8323 3.284C29.0236 2.628 29.3926 2.095 29.9393 1.685C30.5133 1.275 31.1556 1.07 31.8663 1.07H35.8023C36.4856 1.07 37.1006 1.275 37.6473 1.685C38.2213 2.095 38.6176 2.628 38.8363 3.284ZM57.6655 12.14C61.4922 13.2607 64.1572 14.6 65.6605 16.158C67.1639 17.716 67.9155 19.7933 67.9155 22.39C67.9155 28.4033 64.0205 31.41 56.2305 31.41C53.7432 31.41 51.4882 31 49.4655 30.18C48.8369 29.934 48.3312 29.4967 47.9485 28.868C47.5932 28.2393 47.4155 27.556 47.4155 26.818V24.727C47.4155 24.2077 47.6342 23.825 48.0715 23.579C48.5089 23.333 48.9599 23.3193 49.4245 23.538C51.5839 24.5493 53.7159 25.055 55.8205 25.055C58.2805 25.055 59.5105 24.235 59.5105 22.595C59.5105 21.8297 59.3192 21.242 58.9365 20.832C58.5539 20.422 57.8569 20.053 56.8455 19.725C53.2102 18.6043 50.5862 17.2103 48.9735 15.543C47.3882 13.8483 46.5955 11.7573 46.5955 9.27C46.5955 6.59133 47.5522 4.48667 49.4655 2.956C51.4062 1.42533 54.2079 0.66 57.8705 0.66C60.4945 0.66 62.8315 0.946999 64.8815 1.521C65.5375 1.71233 66.0705 2.10867 66.4805 2.71C66.8905 3.284 67.0955 3.92633 67.0955 4.637V6.646C67.0955 7.19267 66.8632 7.63 66.3985 7.958C65.9612 8.25867 65.4692 8.31333 64.9225 8.122C62.4899 7.32933 60.2759 6.933 58.2805 6.933C56.0392 6.933 54.9185 7.712 54.9185 9.27C54.9185 10.6367 55.8342 11.5933 57.6655 12.14ZM80.0794 12.14C83.9061 13.2607 86.5711 14.6 88.0744 16.158C89.5777 17.716 90.3294 19.7933 90.3294 22.39C90.3294 28.4033 86.4344 31.41 78.6444 31.41C76.1571 31.41 73.9021 31 71.8794 30.18C71.2507 29.934 70.7451 29.4967 70.3624 28.868C70.0071 28.2393 69.8294 27.556 69.8294 26.818V24.727C69.8294 24.2077 70.0481 23.825 70.4854 23.579C70.9227 23.333 71.3737 23.3193 71.8384 23.538C73.9977 24.5493 76.1297 25.055 78.2344 25.055C80.6944 25.055 81.9244 24.235 81.9244 22.595C81.9244 21.8297 81.7331 21.242 81.3504 20.832C80.9677 20.422 80.2707 20.053 79.2594 19.725C75.6241 18.6043 73.0001 17.2103 71.3874 15.543C69.8021 13.8483 69.0094 11.7573 69.0094 9.27C69.0094 6.59133 69.9661 4.48667 71.8794 2.956C73.8201 1.42533 76.6217 0.66 80.2844 0.66C82.9084 0.66 85.2454 0.946999 87.2954 1.521C87.9514 1.71233 88.4844 2.10867 88.8944 2.71C89.3044 3.284 89.5094 3.92633 89.5094 4.637V6.646C89.5094 7.19267 89.2771 7.63 88.8124 7.958C88.3751 8.25867 87.8831 8.31333 87.3364 8.122C84.9037 7.32933 82.6897 6.933 80.6944 6.933C78.4531 6.933 77.3324 7.712 77.3324 9.27C77.3324 10.6367 78.2481 11.5933 80.0794 12.14ZM101.304 19.11H105.568C105.65 19.11 105.719 19.0827 105.773 19.028C105.855 18.946 105.883 18.864 105.855 18.782L103.477 8.081C103.477 8.05367 103.464 8.04 103.436 8.04C103.409 8.04 103.395 8.05367 103.395 8.081L101.017 18.782C100.99 18.864 101.004 18.946 101.058 19.028C101.14 19.0827 101.222 19.11 101.304 19.11ZM108.52 3.284L116.556 28.786C116.72 29.3327 116.625 29.8383 116.269 30.303C115.941 30.7677 115.49 31 114.916 31H110.898C110.215 31 109.6 30.795 109.053 30.385C108.534 29.9477 108.206 29.401 108.069 28.745L107.372 25.588C107.318 25.3693 107.181 25.26 106.962 25.26H99.9513C99.6779 25.26 99.5276 25.3693 99.5003 25.588L98.8033 28.745C98.6666 29.401 98.3249 29.9477 97.7783 30.385C97.2589 30.795 96.6576 31 95.9743 31H92.1203C91.5463 31 91.0816 30.7677 90.7263 30.303C90.3983 29.8383 90.3163 29.3327 90.4803 28.786L98.5163 3.284C98.7076 2.628 99.0766 2.095 99.6233 1.685C100.197 1.275 100.84 1.07 101.55 1.07H105.486C106.17 1.07 106.785 1.275 107.331 1.685C107.905 2.095 108.302 2.628 108.52 3.284ZM145.859 1.07C146.46 1.07 146.952 1.30233 147.335 1.767C147.718 2.23166 147.854 2.76467 147.745 3.366L142.907 28.704C142.77 29.36 142.442 29.9067 141.923 30.344C141.404 30.7813 140.802 31 140.119 31H135.363C134.707 31 134.133 30.7813 133.641 30.344C133.149 29.9067 132.862 29.36 132.78 28.704L130.607 9.311C130.607 9.28367 130.593 9.27 130.566 9.27C130.539 9.27 130.525 9.28367 130.525 9.311L128.352 28.704C128.27 29.36 127.983 29.9067 127.491 30.344C126.999 30.7813 126.425 31 125.769 31H121.013C120.33 31 119.715 30.7813 119.168 30.344C118.649 29.9067 118.334 29.36 118.225 28.704L113.387 3.366C113.25 2.76467 113.373 2.23166 113.756 1.767C114.166 1.30233 114.672 1.07 115.273 1.07H118.881C119.537 1.07 120.111 1.28867 120.603 1.726C121.095 2.16333 121.382 2.71 121.464 3.366L123.637 22.759C123.637 22.7863 123.651 22.8 123.678 22.8C123.705 22.8 123.719 22.7863 123.719 22.759L125.523 3.366C125.578 2.71 125.851 2.16333 126.343 1.726C126.835 1.28867 127.409 1.07 128.065 1.07H133.231C133.887 1.07 134.461 1.28867 134.953 1.726C135.445 2.16333 135.718 2.71 135.773 3.366L137.577 22.759C137.577 22.7863 137.591 22.8 137.618 22.8C137.645 22.8 137.659 22.7863 137.659 22.759L139.832 3.366C139.914 2.71 140.201 2.16333 140.693 1.726C141.185 1.28867 141.759 1.07 142.415 1.07H145.859ZM157.021 1.07C157.65 1.07 158.197 1.30233 158.661 1.767C159.126 2.23166 159.358 2.77833 159.358 3.407V28.663C159.358 29.2917 159.126 29.8383 158.661 30.303C158.197 30.7677 157.65 31 157.021 31H152.675C152.047 31 151.5 30.7677 151.035 30.303C150.571 29.8383 150.338 29.2917 150.338 28.663V3.407C150.338 2.77833 150.571 2.23166 151.035 1.767C151.5 1.30233 152.047 1.07 152.675 1.07H157.021Z" fill="white"/>
</svg>
